<svg width="80" height="80" viewBox="0 0 80 80" fill="none" xmlns="http://www.w3.org/2000/svg">
<path d="M40 0C17.91 0 0 17.91 0 40C0 62.09 17.91 80 40 80C62.09 80 80 62.09 80 40C80 17.91 62.09 0 40 0ZM61.2033 53.2233L54.9767 53.31C54.9767 53.31 53.6333 53.5733 51.8767 52.36C49.5467 50.76 47.35 46.5967 45.6367 47.1367C43.9 47.69 43.9533 51.4367 43.9533 51.4367C43.9533 51.4367 43.9667 52.0967 43.57 52.5267C43.14 52.99 42.2967 52.9433 42.2967 52.9433H39.5067C39.5067 52.9433 33.3533 53.4533 27.93 47.8C22.0233 41.6367 16.8033 29.4733 16.8033 29.4733C16.8033 29.4733 16.4967 28.7067 16.8233 28.3133C17.1933 27.88 18.19 27.8667 18.19 27.8667L24.8567 27.8333C24.8567 27.8333 25.4833 27.9433 25.9367 28.2767C26.3067 28.55 26.5167 29.0633 26.5167 29.0633C26.5167 29.0633 27.5933 31.7933 29.0233 34.2667C31.81 39.0867 33.1033 40.1433 34.05 39.6267C35.43 38.8733 35.0167 32.8133 35.0167 32.8133C35.0167 32.8133 35.0433 30.6133 34.3233 29.6333C33.7633 28.87 32.71 28.6433 32.25 28.5867C31.8733 28.5367 32.4867 27.6633 33.2867 27.27C34.4867 26.6833 36.6067 26.65 39.11 26.6733C41.06 26.6933 41.6233 26.8133 42.3833 27C44.6833 27.5567 43.9033 29.7033 43.9033 34.8533C43.9033 36.5033 43.6067 38.8233 44.7933 39.5867C45.3067 39.9167 46.5567 39.6367 49.6733 34.3233C51.1567 31.8033 52.2667 28.8433 52.2667 28.8433C52.2667 28.8433 52.51 28.3167 52.8867 28.09C53.2733 27.8567 53.7933 27.93 53.7933 27.93L60.81 27.8867C60.81 27.8867 62.9167 27.6333 63.26 28.59C63.62 29.59 62.4733 31.9267 59.6067 35.75C54.9 42.03 54.3767 41.4467 58.2867 45.08C62.02 48.55 62.79 50.2367 62.92 50.45C64.4633 53.02 61.2033 53.2233 61.2033 53.2233Z" fill="black"/>
</svg>
