<svg width="80" height="80" viewBox="0 0 80 80" fill="none" xmlns="http://www.w3.org/2000/svg">
<path d="M68.2987 11.7166C59.9609 3.38041 48.5876 -0.825725 36.6456 0.134762C20.5908 1.42341 6.51834 12.5811 1.80883 27.9729C-1.55511 38.9704 -0.141455 50.4523 5.33696 59.9371L0.146882 77.1578C-0.349699 78.8106 1.16007 80.3674 2.83002 79.9232L20.8671 75.0928C26.71 78.2784 33.2857 79.9552 39.9815 79.9592H39.9975C56.7972 79.9592 72.3194 69.69 77.6897 53.7819C82.9198 38.2701 79.0512 22.4741 68.2987 11.7166ZM59.5724 54.2422C58.7395 56.5754 54.6587 58.8245 52.8245 58.9886C50.9904 59.1567 49.2724 59.817 40.8305 56.4913C30.6706 52.4893 24.2551 42.08 23.7585 41.4157C23.2579 40.7473 19.6777 36.0009 19.6777 31.0864C19.6777 26.172 22.2608 23.7547 23.1778 22.7582C24.0949 21.7577 25.1762 21.5096 25.845 21.5096C26.5097 21.5096 27.1785 21.5096 27.7592 21.5336C28.472 21.5616 29.261 21.5976 30.0098 23.2585C30.8989 25.2355 32.8412 30.174 33.0894 30.6742C33.3377 31.1745 33.5059 31.7588 33.1735 32.4231C32.8412 33.0875 32.673 33.5037 32.1764 34.088C31.6758 34.6723 31.1271 35.3886 30.6786 35.8369C30.178 36.3331 29.6574 36.8774 30.2381 37.8739C30.8228 38.8744 32.8251 42.1441 35.7966 44.7894C39.6171 48.1911 42.8329 49.2436 43.834 49.7479C44.8352 50.2482 45.4159 50.1641 46.0006 49.4958C46.5852 48.8314 48.4995 46.5823 49.1643 45.5818C49.829 44.5813 50.4978 44.7494 51.4149 45.0815C52.332 45.4137 57.2457 47.8309 58.2429 48.3312C59.2441 48.8314 59.9088 49.0796 60.1571 49.4958C60.4054 49.908 60.4054 51.909 59.5724 54.2422Z" fill="black"/>
</svg>
